<?xml version="1.0" standalone="no"?>
<!DOCTYPE svg PUBLIC "-//W3C//DTD SVG 20010904//EN"
 "http://www.w3.org/TR/2001/REC-SVG-20010904/DTD/svg10.dtd">
<svg version="1.0" xmlns="http://www.w3.org/2000/svg"
 width="592.000000pt" height="106.000000pt" viewBox="0 0 592.000000 106.000000"
 preserveAspectRatio="xMidYMid meet">

<g transform="translate(0.000000,106.000000) scale(0.100000,-0.100000)"
fill="#000000" stroke="none">
<path d="M2600 870 c0 -11 7 -20 15 -20 8 0 15 9 15 20 0 11 -7 20 -15 20 -8
0 -15 -9 -15 -20z"/>
<path d="M2692 882 c-22 -15 -27 -63 -24 -234 3 -158 4 -168 23 -168 18 0 19
9 20 153 1 83 3 176 4 205 3 52 0 58 -23 44z"/>
<path d="M2759 853 c-3 -129 4 -340 12 -355 5 -10 15 -18 22 -18 9 0 12 47 10
191 -1 105 -4 197 -7 205 -3 8 -12 14 -21 14 -11 0 -15 -11 -16 -37z"/>
<path d="M3090 687 l0 -204 40 0 c29 0 44 5 50 18 11 19 14 260 4 297 -4 15
-14 22 -30 22 -18 0 -23 6 -26 32 -2 22 -9 34 -20 36 -17 3 -18 -12 -18 -201z
m60 -37 c0 -87 -4 -140 -10 -140 -6 0 -10 53 -10 140 0 87 4 140 10 140 6 0
10 -53 10 -140z"/>
<path d="M634 819 c-95 -16 -234 -70 -476 -187 -52 -24 -57 -30 -57 -59 -1
-30 2 -33 28 -33 54 0 61 -8 61 -64 0 -42 -5 -57 -23 -74 -13 -12 -33 -22 -45
-22 -18 0 -22 -6 -22 -30 l0 -30 99 0 99 0 26 35 c35 46 74 65 133 65 55 0
100 -23 134 -69 l23 -31 417 0 418 0 17 29 c54 91 210 94 267 5 22 -34 22 -34
105 -34 l82 0 0 35 c0 33 -2 35 -32 35 -62 0 -128 65 -128 127 0 19 7 36 16
41 21 12 -73 46 -276 101 -80 22 -186 56 -236 75 -219 85 -448 116 -630 85z
m286 -29 c203 -25 450 -129 450 -191 0 -19 -11 -19 -539 -19 -596 0 -587 -1
-513 60 88 72 243 133 382 149 107 12 126 12 220 1z m124 -256 c9 -3 16 -14
16 -24 0 -20 -19 -30 -60 -30 -16 0 -35 3 -44 6 -19 7 -21 40 -3 47 18 8 73 8
91 1z"/>
<path d="M635 723 c-38 -8 -97 -26 -130 -41 -120 -52 -121 -52 123 -52 l222 0
0 55 0 55 -72 -1 c-40 0 -104 -7 -143 -16z"/>
<path d="M900 685 l0 -55 178 1 177 1 -60 28 c-62 29 -178 64 -252 74 l-43 6
0 -55z"/>
<path d="M2307 813 c-4 -3 -7 -36 -7 -73 0 -53 4 -70 19 -84 27 -25 43 -68 39
-107 -4 -46 -22 -39 -26 11 -2 27 -8 40 -18 40 -10 0 -14 -14 -14 -55 0 -51 2
-55 27 -61 43 -11 58 6 61 71 3 51 0 63 -27 101 -24 33 -31 53 -31 89 0 60 24
57 28 -3 2 -29 8 -42 18 -42 10 0 14 12 14 44 0 64 -7 76 -44 76 -18 0 -36 -3
-39 -7z"/>
<path d="M2420 798 c0 -30 19 -245 26 -285 9 -58 32 -40 38 30 11 112 13 123
15 67 2 -83 12 -130 27 -130 15 0 19 23 34 187 13 153 13 153 -4 153 -15 0
-25 -46 -27 -130 -2 -56 -4 -45 -15 68 -4 41 -10 62 -18 62 -15 0 -25 -48 -27
-130 -2 -56 -4 -45 -15 68 -4 44 -10 62 -20 62 -8 0 -14 -10 -14 -22z"/>
<path d="M2600 650 c0 -144 2 -170 15 -170 13 0 15 26 15 170 0 144 -2 170
-15 170 -13 0 -15 -26 -15 -170z"/>
<path d="M2852 808 c-8 -8 -12 -58 -12 -158 0 -157 4 -170 51 -170 34 0 38 7
46 70 5 46 4 50 -16 50 -18 0 -21 -6 -21 -45 0 -25 -4 -45 -10 -45 -6 0 -10
53 -10 140 0 87 4 140 10 140 6 0 10 -20 10 -45 0 -39 3 -45 21 -45 20 0 21 4
16 50 -3 28 -9 55 -12 60 -9 14 -59 12 -73 -2z"/>
<path d="M2970 801 c-5 -11 -10 -38 -10 -60 0 -34 3 -41 20 -41 17 0 20 7 20
45 0 25 5 45 10 45 17 0 12 -106 -6 -121 -27 -22 -44 -66 -44 -113 0 -54 17
-74 65 -74 l35 0 0 157 c0 109 -4 161 -12 169 -19 19 -66 15 -78 -7z m50 -231
c0 -33 -4 -60 -10 -60 -11 0 -14 103 -3 113 12 12 13 8 13 -53z"/>
<path d="M1820 491 c0 -17 52 -51 76 -51 29 0 31 20 6 43 -20 18 -82 23 -82 8z"/>
<path d="M100 455 c0 -27 1 -28 24 -19 24 9 20 44 -4 44 -15 0 -20 -7 -20 -25z"/>
<path d="M400 353 c-39 -27 -49 -45 -50 -90 0 -33 6 -50 29 -75 25 -28 36 -33
75 -33 38 0 51 5 77 31 69 70 20 184 -79 184 -15 0 -39 -8 -52 -17z"/>
<path d="M1548 355 c-31 -17 -58 -63 -58 -97 0 -69 85 -125 150 -98 72 30 93
114 43 170 -34 38 -93 49 -135 25z"/>
<path d="M4873 320 c-58 -24 -50 -90 14 -110 71 -23 91 -56 51 -84 -22 -15
-63 -13 -82 5 -13 12 -26 11 -26 0 0 -16 69 -43 93 -35 33 10 57 34 57 59 0
26 -21 45 -77 69 -59 26 -67 57 -19 76 13 5 33 3 54 -6 27 -11 32 -11 32 1 0
7 -14 18 -31 24 -37 13 -37 13 -66 1z"/>
<path d="M2300 210 c0 -67 4 -110 10 -110 6 0 10 23 10 50 l0 50 40 0 c22 0
40 5 40 10 0 6 -18 10 -40 10 l-40 0 0 40 0 40 60 0 c33 0 60 4 60 10 0 6 -30
10 -70 10 l-70 0 0 -110z"/>
<path d="M3000 210 c0 -67 4 -110 10 -110 6 0 10 16 10 35 0 33 2 35 34 35 27
0 40 -7 64 -37 37 -46 51 -40 18 7 l-23 34 25 21 c30 26 33 77 6 106 -13 15
-31 19 -81 19 l-63 0 0 -110z m128 78 c17 -17 15 -63 -4 -78 -8 -8 -34 -14
-57 -14 l-42 -1 -3 53 -3 52 48 0 c27 0 54 -5 61 -12z"/>
<path d="M3370 210 c0 -67 4 -110 10 -110 6 0 10 43 10 110 0 67 -4 110 -10
110 -6 0 -10 -43 -10 -110z"/>
<path d="M3430 310 c0 -5 5 -10 10 -10 6 0 10 5 10 10 0 6 -4 10 -10 10 -5 0
-10 -4 -10 -10z"/>
<path d="M3640 210 l0 -110 28 -2 c80 -5 102 10 102 74 0 47 -34 74 -80 64
-30 -5 -30 -5 -30 39 0 25 -4 45 -10 45 -6 0 -10 -43 -10 -110z m92 -2 c30
-24 27 -74 -6 -89 -37 -17 -66 3 -66 46 0 47 38 69 72 43z"/>
<path d="M3810 210 c0 -67 4 -110 10 -110 6 0 10 43 10 110 0 67 -4 110 -10
110 -6 0 -10 -43 -10 -110z"/>
<path d="M4170 210 c0 -67 4 -110 10 -110 6 0 10 16 10 35 0 33 2 35 34 35 27
0 39 -7 60 -35 36 -47 54 -45 22 2 l-25 36 24 23 c31 28 33 76 5 104 -16 16
-33 20 -80 20 l-60 0 0 -110z m124 74 c20 -20 21 -58 1 -74 -8 -7 -35 -15 -60
-18 l-45 -5 0 57 0 56 44 0 c27 0 51 -6 60 -16z"/>
<path d="M4370 310 c0 -5 5 -10 10 -10 6 0 10 5 10 10 0 6 -4 10 -10 10 -5 0
-10 -4 -10 -10z"/>
<path d="M4540 275 c0 -44 0 -44 -30 -39 -59 12 -97 -37 -77 -99 11 -34 43
-48 91 -40 l36 6 0 108 c0 66 -4 109 -10 109 -5 0 -10 -20 -10 -45z m-22 -61
c18 -5 22 -13 22 -45 0 -32 -5 -42 -24 -50 -55 -25 -97 51 -48 89 18 14 19 14
50 6z"/>
<path d="M5591 271 c0 -8 -8 -23 -18 -33 -9 -11 -11 -18 -5 -18 8 0 12 -20 12
-55 0 -44 4 -56 20 -65 11 -6 25 -8 30 -5 12 7 13 26 3 24 -28 -4 -33 4 -33
51 0 43 3 50 20 50 11 0 20 5 20 10 0 6 -9 10 -19 10 -12 0 -21 8 -24 23 -2
12 -5 16 -6 8z"/>
<path d="M60 245 l0 -25 119 0 118 0 -5 25 c-4 25 -5 25 -118 25 l-114 0 0
-25z"/>
<path d="M620 245 l0 -25 410 0 410 0 0 25 0 25 -410 0 -410 0 0 -25z"/>
<path d="M1770 261 c0 -5 -3 -16 -6 -25 -5 -14 5 -16 75 -16 80 0 81 0 81 25
0 24 -2 25 -75 25 -41 0 -75 -4 -75 -9z"/>
<path d="M2767 244 c-10 -13 -13 -24 -7 -24 5 0 10 -22 10 -49 0 -53 21 -87
47 -77 8 3 18 6 21 6 4 0 -4 6 -18 13 -21 10 -26 21 -28 60 -3 42 -1 47 17 47
12 0 21 5 21 10 0 6 -9 10 -19 10 -11 0 -21 6 -23 14 -2 10 -8 7 -21 -10z"/>
<path d="M2493 233 c-25 -10 -12 -22 17 -17 18 4 36 1 45 -6 18 -15 11 -30
-15 -30 -37 0 -70 -22 -70 -47 0 -28 33 -44 70 -33 14 4 31 5 39 2 11 -4 13 7
9 51 -2 31 -10 63 -17 71 -13 15 -52 20 -78 9z m77 -89 c0 -18 -43 -39 -64
-31 -27 11 -18 36 17 45 36 10 47 7 47 -14z"/>
<path d="M2638 229 c-32 -18 -22 -49 22 -66 54 -22 52 -50 -4 -45 -42 4 -43
-12 -1 -22 66 -17 87 46 25 75 -43 21 -46 44 -5 45 46 2 52 5 30 14 -27 12
-47 11 -67 -1z"/>
<path d="M3215 215 c-14 -13 -25 -30 -25 -37 1 -60 51 -98 101 -78 16 7 29 16
29 21 0 12 -4 11 -33 -2 -28 -13 -67 2 -67 26 0 11 13 15 55 15 48 0 55 3 55
20 0 26 -38 60 -67 60 -13 0 -35 -11 -48 -25z m79 -11 c26 -25 19 -34 -27 -34
-53 0 -62 8 -40 32 20 22 46 23 67 2z"/>
<path d="M3430 170 c0 -40 4 -70 10 -70 6 0 10 30 10 70 0 40 -4 70 -10 70 -6
0 -10 -30 -10 -70z"/>
<path d="M3504 226 c-17 -14 -15 -15 26 -13 35 2 45 -2 48 -15 2 -13 -3 -18
-17 -18 -38 0 -71 -22 -71 -47 0 -28 33 -44 70 -33 14 4 30 5 37 3 14 -5 6
105 -10 125 -13 16 -59 15 -83 -2z m79 -77 c6 -23 -30 -46 -57 -36 -25 10 -19
34 12 45 38 15 39 14 45 -9z"/>
<path d="M3890 220 c-58 -58 9 -152 82 -114 36 19 32 30 -5 13 -22 -10 -31 -9
-52 5 -39 25 -30 36 30 36 52 0 55 1 55 24 0 50 -73 73 -110 36z m78 -12 c25
-25 13 -38 -33 -38 -30 0 -45 4 -45 13 0 19 21 37 45 37 12 0 26 -5 33 -12z"/>
<path d="M4370 170 c0 -40 4 -70 10 -70 6 0 10 30 10 70 0 40 -4 70 -10 70 -6
0 -10 -30 -10 -70z"/>
<path d="M4610 220 c-26 -26 -26 -81 0 -105 24 -21 72 -24 95 -5 22 18 12 23
-18 9 -22 -10 -31 -9 -52 5 -40 26 -30 36 36 36 58 0 60 1 54 23 -16 53 -78
74 -115 37z m78 -12 c25 -25 13 -38 -33 -38 -33 0 -45 4 -45 15 0 29 56 45 78
23z"/>
<path d="M5017 233 c-11 -10 -8 -133 3 -133 6 0 10 20 10 43 0 48 22 77 58 77
27 0 42 -28 42 -79 0 -23 5 -41 10 -41 6 0 10 22 10 48 0 52 12 72 45 72 33 0
45 -20 45 -72 0 -26 5 -48 10 -48 6 0 10 21 10 48 0 77 -37 110 -92 81 -14 -8
-28 -7 -49 2 -23 9 -36 9 -56 0 -18 -8 -28 -9 -33 -1 -3 6 -9 7 -13 3z"/>
<path d="M5318 233 c-33 -8 -18 -22 18 -16 25 4 39 2 44 -8 12 -18 3 -29 -23
-29 -31 0 -67 -27 -67 -51 0 -24 41 -42 73 -30 12 4 28 6 35 4 18 -7 16 87 -4
115 -14 21 -37 25 -76 15z m70 -85 c-4 -27 -52 -48 -70 -30 -20 20 6 41 65 51
5 0 7 -9 5 -21z"/>
<path d="M5450 168 c0 -39 4 -68 10 -68 6 0 10 24 10 54 0 45 3 56 19 61 10 3
23 4 29 3 5 -2 10 2 11 7 0 6 -17 10 -39 10 l-40 0 0 -67z"/>
<path d="M2865 110 c-3 -5 1 -10 9 -10 9 0 16 5 16 10 0 6 -4 10 -9 10 -6 0
-13 -4 -16 -10z"/>
<path d="M4030 110 c0 -5 7 -10 15 -10 8 0 15 5 15 10 0 6 -7 10 -15 10 -8 0
-15 -4 -15 -10z"/>
<path d="M5670 110 c0 -5 7 -10 15 -10 8 0 15 5 15 10 0 6 -7 10 -15 10 -8 0
-15 -4 -15 -10z"/>
</g>
</svg>
